# xmcd
#
# Track frame offsets:
#	150
#	15807
#	29334
#	44214
#	58651
#	76969
#	90493
#	111035
#	127454
#	145161
#	157538
#	171835
#	181807
#	198759
#
# Disc length: 2846 seconds
#
# Revision: 1
# Processed by: cddbd v1.4PL0 Copyright (c) Steve Scherf et al.
# Submitted via: audiograbber 1.81.01
#
DISCID=ad0b1c0e
DTITLE=llii - iuzzt
DYEAR=1900
DGENRE=Pop
TTITLE0=jhjh
TTITLE1=jhj
TTITLE2=jhjf
TTITLE3=fhnjfj
TTITLE4=nhgj
TTITLE5=nmujk
TTITLE6=muk
TTITLE7=hgmghm
TTITLE8=mnhgmhg
TTITLE9=mhgmhg
TTITLE10=mbvnmhg
TTITLE11=mvbmvn
TTITLE12=nmvnmn
TTITLE13=mvbnvb
EXTD=
EXTT0=
EXTT1=
EXTT2=
EXTT3=
EXTT4=
EXTT5=
EXTT6=
EXTT7=
EXTT8=
EXTT9=
EXTT10=
EXTT11=
EXTT12=
EXTT13=
PLAYORDER=
